<svg xmlns="http://www.w3.org/2000/svg" width="1024" height="455.597" id="nivea">
  <path fill="#00136f" d="M0-.002h1024v455.6H0Z"></path>
  <path fill="#fff" d="m832.683 133.018-108.2 196.069h61.83l9.356-19.933h73.628l9.763 19.933h61.42l-8.136-14.645-99.661-181.424Zm-727.733 1.627v194.442h57.763v-71.589l94.78 84.2V148.883H199.73v69.152l-94.78-83.39Zm207.458 14.238v180.2h58.577v-180.2Zm69.56 0 102.1 188.745 102.51-188.746H524.75l-40.68 80.542-39.863-80.542h-62.238Zm214.374 0v180.2h114.307v-47.185h-55.73v-28.066h55.73v-33.764h-55.73v-24.813h55.73v-46.373H596.342Zm235.933 83.39 22.373 46.78h-44.34l21.967-46.78Z"></path>
</svg>
