<svg xmlns="http://www.w3.org/2000/svg" width="498.153" height="149.231" id="slack">
  <path fill="#443642" d="M176.999 58.543c0-14.818 10.8-25.165 30.438-25.165 11.98 0 21.783 3.825 27.094 7.572a3.46 3.46 0 0 1 1.3 4.247c-1.042 2.6-2.953 6.51-4.324 9.05-.8 1.48-2.836 1.285-3.88.756-3.783-1.917-9.988-5.16-15.688-5.758a33.378 33.378 0 0 0-4.347-.188c-5.02.112-9.214 1.855-10.691 5.685a6.74 6.74 0 0 0-.477 2.274c-.138 5.047 6.886 6.872 15.4 8.334 15.819 2.71 27.787 7.348 27.787 23.63 0 13.827-10.989 26.323-32.52 25.94-14.194-.287-24.264-5.083-29.66-9.737-.184-.158-2.238-2.25-1.137-4.766a35.764 35.764 0 0 1 5.056-8.922c.928-1.266 3.377-1.467 4.65-.678 4.448 2.764 11.768 7.2 20.206 7.49.666.023 1.326.027 1.974.01 7.59-.184 12.182-3.062 12.086-7.91-.082-4.271-6.1-6.766-15.683-8.572-15.284-2.879-27.58-7.917-27.58-23.292m138.851 21.1c-10.778.141-20.66 3.087-20.945 11.51 0 6.684 5.419 9.967 13.029 9.537 7.3-.7 12.867-3.869 15.32-8.07.907-1.557 1.045-7.383.99-9.873-.014-.53-1.062-1.533-1.521-1.726a17.4 17.4 0 0 0-6.874-1.38m-35.864-33.939a43.589 43.589 0 0 1 30.959-11.16c21.017.437 32.12 10.29 33.154 33.86.426 9.72-.28 36.832-.448 43.587-.025.969-.353 1.639-1.659 1.664-3.461.139-11.457.084-15.131.036-1.854-.09-2.069-1.01-2.093-1.973-.016-.63-.07-2.5-.109-4.021a.614.614 0 0 0-.974-.578c-4.93 5.264-13 7.806-21.59 7.806-13.05 0-26.06-7.677-26.02-22.88.04-15.57 11.08-23.25 23.208-25.061a47.158 47.158 0 0 1 23.15 2.506c.424.17 1.29-.076 1.3-.677a45.691 45.691 0 0 0-.45-7.557c-.973-4.566-4.782-8.24-12.784-9.23a24.623 24.623 0 0 0-4.968-.138c-6.361.5-14.016 5.46-17.186 7.317a2.027 2.027 0 0 1-2.292-.37c-1.85-2.39-6.5-9.38-6.866-10.5a2.454 2.454 0 0 1 .8-2.638Zm71.047 28.984c-.129-21.715 15-40.03 39.569-40.195 15.33-.1 26.467 6.85 28.431 10.128a2.5 2.5 0 0 1-.082 2.188 76.184 76.184 0 0 1-6.912 11.034c-.995 1.278-2.075.183-3.33-.652a32.7 32.7 0 0 0-16.614-5.157c-11.816 0-20.615 8.1-20.517 23.01.092 14.3 8.52 22.165 20.558 22.45 6.293.158 12.39-3.459 15.67-6.422 1.03-.9 2.1-.449 3.273.471a94.309 94.309 0 0 1 7.46 8.515 2.449 2.449 0 0 1-.13 3.306c-4.984 6.307-14.61 11.615-27.349 11.687-26.674.187-39.906-18.568-40.029-40.36m127.325 39.381c1.252-.094 14.613-1.938 18.714-2.877a1.182 1.182 0 0 0 .811-1.936c-2.29-3.434-8.311-13.186-14.617-21.916-5.8-8.027-11.913-15.087-13.89-17.8a1.283 1.283 0 0 1 .069-1.822c3.761-3.68 19.493-19.1 25.408-25.475 2.29-2.478.915-3.544-1.03-4.123-3.757-1.12-9.834-2.516-13.29-3.245a4.707 4.707 0 0 0-4.486 1.11c-5.914 5.515-23.963 23.63-29.351 29.045-.97.977-1.535.76-1.54-.636-.044-10.44-.25-55.138-.623-62.49A2.141 2.141 0 0 0 442.68.16c-3.388-.177-11.947-.228-15.32-.03a2.393 2.393 0 0 0-1.93 1.884c-.778 11.756.33 98.054.792 110.126a1.625 1.625 0 0 0 1.512 1.6c3.365.2 11.688.182 15.574.109 1.912 0 2.146-1.344 2.146-1.344l.288-23.157a3.84 3.84 0 0 1 .516-1.37c1.37-1.475 5.16-5.537 6.776-7.107a.9.9 0 0 1 1.4.183c1.92 2.59 7.395 11.01 12.47 18.53 4.663 6.908 9.016 13.039 9.32 13.472a2.239 2.239 0 0 0 2.14 1.021Zm-227.233-.08c1.175.039 10.09.029 14.04.024a1.958 1.958 0 0 0 2.065-1.87c.839-16.926.48-97.512-.05-110.237-.044-1.1-.515-1.513-1.266-1.613-3.39-.454-13.024-.348-16.112.46a1.242 1.242 0 0 0-.979 1.206c-.756 32.8-.246 108.42-.086 109.852a2.18 2.18 0 0 0 2.39 2.178Z"></path>
  <path fill="#70cadb" d="M12.536 80.336A12.174 12.174 0 0 1 .669 71.994q-.1-.289-.178-.583a12.757 12.757 0 0 1 8.255-15.582l104.24-34.923a14.128 14.128 0 0 1 3.807-.556 12.491 12.491 0 0 1 12.18 8.52l.156.5c1.95 6.816-2.895 12.9-8.7 14.85 0 0-1.06.36-103.662 35.391a13.49 13.49 0 0 1-4.231.725Z"></path>
  <path fill="#e01765" d="M29.908 131.601a12.161 12.161 0 0 1-11.9-8.225q-.1-.287-.18-.579a12.845 12.845 0 0 1 8.247-15.735l104.241-35.243a13.424 13.424 0 0 1 4.137-.693 12.6 12.6 0 0 1 12.151 8.444l.16.53a13.19 13.19 0 0 1-1.59 10.6c-1.492 2.322-6.2 4.366-6.2 4.366l-104.638 35.78a14.356 14.356 0 0 1-4.428.757Z"></path>
  <path fill="#e8a723" d="M116.684 131.824a12.8 12.8 0 0 1-12.255-8.723L69.636 19.761l-.174-.58a12.815 12.815 0 0 1 24.47-7.6l34.79 103.335.1.332a12.805 12.805 0 0 1-12.139 16.576Z"></path>
  <path fill="#3eb890" d="M64.971 149.23a12.8 12.8 0 0 1-12.26-8.73L17.93 37.164a12.8 12.8 0 0 1 8.051-16.23 12.96 12.96 0 0 1 3.985-.668 12.8 12.8 0 0 1 12.257 8.723l34.782 103.34a12.811 12.811 0 0 1-12.038 16.9Z"></path>
  <path fill="#cc2027" d="m99.536 108.556 24.258-8.294-7.93-23.55-24.286 8.207Z"></path>
  <path fill="#361238" d="m47.9 126.206 24.256-8.293-7.99-23.73-24.28 8.21Z"></path>
  <path fill="#65863a" d="m82.263 57.256 24.26-8.283-7.837-23.275-24.305 8.143Z"></path>
  <path fill="#1a937d" d="m30.624 74.886 24.26-8.283-7.933-23.572-24.305 8.142Z"></path>
</svg>
